<?xml version="1.0"?>
<svg xmlns="http://www.w3.org/2000/svg" viewBox="0 0 64 64" width="512" height="512"><g id="Bread-healthy-sandwich-food"><path d="M57,48a4,4,0,0,0-8,0c0,.854-.933,1-2,1a3,3,0,0,0,0,6,2.97,2.97,0,0,0,1.47-.4,2.992,2.992,0,0,0,5.322-2.68A4,4,0,0,0,57,48Z" style="fill:#5eac24"/><path d="M61,27a5,5,0,0,0-5-5c-.07,0-.13.02-.19.02a2.863,2.863,0,0,0,.18-.78,2.99,2.99,0,0,0-.78-2.26A2,2,0,0,0,55,15a2.04,2.04,0,0,0-1.01.28l-.017-.007c.006-.092.027-.18.027-.273a3.981,3.981,0,0,0-6.62-3H46V41h9a3.984,3.984,0,0,0,2.56-7.05h0A2.118,2.118,0,0,0,58,34a2.006,2.006,0,0,0,2-2,1.984,1.984,0,0,0-.56-1.38A4.982,4.982,0,0,0,61,27Z" style="fill:#4e901e"/><polygon points="43 55 60 43 43 27 43 55" style="fill:#ffda44"/><circle cx="50" cy="29" r="6" style="fill:#df2a47"/><path d="M51,11a.57.57,0,0,1-.01.13c-.08,1.79-1.93,3.43-4.99,4.75V60a1,1,0,0,1-1,1H9a1,1,0,0,1-1-1V15.88C4.87,14.53,3,12.84,3,11,3,6.58,13.75,3,27,3S51,6.58,51,11Z" style="fill:#ff9811"/><path d="M46.62,10.99a11.3,11.3,0,0,1-2.2,1.22L42,13.25V57H12V13.25L9.58,12.21a11.3,11.3,0,0,1-2.2-1.22C9.29,9.5,15.98,7,27,7S44.71,9.5,46.62,10.99Z" style="fill:#ffb655"/><rect x="49.793" y="39.086" width="1.414" height="2.828" rx="0.707" transform="translate(-13.847 47.571) rotate(-45)" style="fill:#ff9811"/><rect x="48.793" y="45.086" width="1.414" height="2.828" rx="0.707" transform="translate(-18.382 48.621) rotate(-45)" style="fill:#ff9811"/><rect x="53" y="28" width="1" height="2" style="fill:#ab2300"/><rect x="49" y="28" width="1" height="2" style="fill:#ab2300"/><rect x="51" y="25" width="1" height="2" style="fill:#ab2300"/><rect x="51" y="31" width="1" height="2" style="fill:#ab2300"/><rect x="17" y="25" width="2" height="3" style="fill:#ff9811"/><rect x="17" y="32" width="2" height="3" style="fill:#ff9811"/><rect x="17" y="39" width="2" height="3" style="fill:#ff9811"/><rect x="17" y="46" width="2" height="3" style="fill:#ff9811"/><rect x="23" y="22" width="2" height="3" style="fill:#ff9811"/><rect x="23" y="29" width="2" height="3" style="fill:#ff9811"/><rect x="23" y="36" width="2" height="3" style="fill:#ff9811"/><rect x="23" y="43" width="2" height="3" style="fill:#ff9811"/><rect x="23" y="50" width="2" height="3" style="fill:#ff9811"/><rect x="29" y="18" width="2" height="3" style="fill:#ff9811"/><rect x="29" y="25" width="2" height="3" style="fill:#ff9811"/><rect x="29" y="32" width="2" height="3" style="fill:#ff9811"/><rect x="29" y="39" width="2" height="3" style="fill:#ff9811"/><rect x="29" y="46" width="2" height="3" style="fill:#ff9811"/><rect x="35" y="22" width="2" height="3" style="fill:#ff9811"/><rect x="35" y="29" width="2" height="3" style="fill:#ff9811"/><rect x="35" y="36" width="2" height="3" style="fill:#ff9811"/><rect x="35" y="43" width="2" height="3" style="fill:#ff9811"/><rect x="35" y="50" width="2" height="3" style="fill:#ff9811"/><rect x="47" y="25" width="1" height="2" style="fill:#ab2300"/><rect x="47" y="31" width="1" height="2" style="fill:#ab2300"/><circle cx="50" cy="53" r="1" style="fill:#7ed63e"/><circle cx="49" cy="20" r="1" style="fill:#75a950"/><circle cx="52" cy="15" r="1" style="fill:#629c37"/><circle cx="58" cy="26" r="1" style="fill:#89b569"/><rect x="13" y="10" width="8" height="3" rx="1.5" style="fill:#ffc67b"/><rect x="23" y="10" width="3" height="3" rx="1.5" style="fill:#ffc67b"/><rect x="17" y="18" width="2" height="3" style="fill:#ff9811"/></g></svg>
